<?xml version="1.0" encoding="UTF-8" standalone="no"?>
<!-- Generator: Adobe Illustrator 19.0.0, SVG Export Plug-In . SVG Version: 6.00 Build 0)  -->

<svg
   xmlns:dc="http://purl.org/dc/elements/1.1/"
   xmlns:cc="http://creativecommons.org/ns#"
   xmlns:rdf="http://www.w3.org/1999/02/22-rdf-syntax-ns#"
   xmlns:svg="http://www.w3.org/2000/svg"
   xmlns="http://www.w3.org/2000/svg"
   xmlns:sodipodi="http://sodipodi.sourceforge.net/DTD/sodipodi-0.dtd"
   xmlns:inkscape="http://www.inkscape.org/namespaces/inkscape"
   version="1.1"
   id="Capa_1"
   x="0px"
   y="0px"
   viewBox="0 0 371.067 371.067"
   style="enable-background:new 0 0 371.067 371.067;"
   xml:space="preserve"
   sodipodi:docname="customer2.svg"
   inkscape:version="0.92.3 (2405546, 2018-03-11)"><metadata
   id="metadata55"><rdf:RDF><cc:Work
       rdf:about=""><dc:format>image/svg+xml</dc:format><dc:type
         rdf:resource="http://purl.org/dc/dcmitype/StillImage" /><dc:title></dc:title></cc:Work></rdf:RDF></metadata><defs
   id="defs53" /><sodipodi:namedview
   pagecolor="#ffffff"
   bordercolor="#666666"
   borderopacity="1"
   objecttolerance="10"
   gridtolerance="10"
   guidetolerance="10"
   inkscape:pageopacity="0"
   inkscape:pageshadow="2"
   inkscape:window-width="1366"
   inkscape:window-height="693"
   id="namedview51"
   showgrid="false"
   inkscape:zoom="0.63600376"
   inkscape:cx="185.53349"
   inkscape:cy="185.53349"
   inkscape:window-x="0"
   inkscape:window-y="25"
   inkscape:window-maximized="1"
   inkscape:current-layer="Capa_1" />
<g
   id="g6"
   style="fill:#ffffff">
	<g
   id="g4"
   style="fill:#ffffff">
		<path
   d="M310.927,149.733l-125.6-0.4l47.6-136.4c1.2-3.6,0.4-8-2.8-10.8c-4-3.2-10-2.8-13.2,1.2c-18.4,22.4-36.8,44.8-54.8,67.2    c-36.8,45.2-73.6,90.4-110.4,135.6c-1.2,1.6-2,3.6-2,6c0,5.2,4,9.2,9.2,9.2l125.6,0.4l-47.6,136.4c-1.2,3.6-0.4,8,2.8,10.8    c4,3.2,10,2.8,13.2-1.2c19.2-23.6,37.6-45.6,56-67.6c37.2-44.8,74.4-89.6,109.6-135.2c1.2-1.6,2-3.6,2-5.6    C320.526,154.133,316.127,149.733,310.927,149.733z M194.527,287.733c-7.2,8.8-14.8,17.6-22,26.4l34.4-98.4c1.6-4.8-0.8-10.4-6-12    c-1.2-0.4-2.4-0.4-3.6-0.4l-118.4-0.4c32.8-40,65.2-80,98-120l20.8-25.6l-34.4,98c-1.6,4.8,0.8,10.4,6,12c1.2,0.4,2.4,0.4,3.6,0.4    l119.2,0.4C260.527,208.533,227.727,248.133,194.527,287.733z"
   id="path2"
   style="fill:#ffffff" />
	</g>
</g>
<g
   id="g12"
   style="fill:#ffffff">
	<g
   id="g10"
   style="fill:#ffffff">
		<path
   d="M158.127,24.933c-1.2-5.2-6.4-8.4-11.2-7.2c-39.2,8.8-71.6,30.4-94.8,59.6s-36.8,66-36.8,105.6c0,31.2,8.4,61.2,24,87.2    c15.6,26,37.6,47.6,65.2,62.4c4.8,2.4,10.4,0.8,12.8-4c2.4-4.8,0.8-10.4-4-12.8c-24.4-13.2-44-32.4-58-55.6    c-13.6-22.8-21.2-49.6-21.2-77.2c0-35.2,12-67.6,32.8-93.6c20.4-26,49.6-45.2,84-53.2    C156.127,34.933,159.326,29.733,158.127,24.933z"
   id="path8"
   style="fill:#ffffff" />
	</g>
</g>
<g
   id="g18"
   style="fill:#ffffff">
	<g
   id="g16"
   style="fill:#ffffff">
		<path
   d="M332.526,96.533c-15.2-25.6-37.2-47.6-64.4-62.4c-4.4-2.4-10.4-0.8-12.8,3.6c-2.4,4.4-0.8,10.4,3.6,12.8    c24,13.2,43.6,32.4,57.2,55.2c13.6,22.8,20.8,49.2,20.8,76.8c0,35.6-12.4,68.4-33.2,94.4c-20.8,26-50.4,45.2-85.2,52.8    c-5.2,1.2-8.4,6-7.2,11.2c1.2,5.2,6,8.4,11.2,7.2c38.8-8.8,72-30,95.6-59.6c23.6-29.2,37.6-66.4,37.6-106.4    C356.127,151.733,347.727,122.133,332.526,96.533z"
   id="path14"
   style="fill:#ffffff" />
	</g>
</g>
<g
   id="g20">
</g>
<g
   id="g22">
</g>
<g
   id="g24">
</g>
<g
   id="g26">
</g>
<g
   id="g28">
</g>
<g
   id="g30">
</g>
<g
   id="g32">
</g>
<g
   id="g34">
</g>
<g
   id="g36">
</g>
<g
   id="g38">
</g>
<g
   id="g40">
</g>
<g
   id="g42">
</g>
<g
   id="g44">
</g>
<g
   id="g46">
</g>
<g
   id="g48">
</g>
</svg>