<?xml version="1.0" encoding="utf-8"?>
<!-- Generator: Adobe Illustrator 23.0.0, SVG Export Plug-In . SVG Version: 6.00 Build 0)  -->
<svg version="1.1" id="Layer_1" xmlns="http://www.w3.org/2000/svg" xmlns:xlink="http://www.w3.org/1999/xlink" x="0px" y="0px"
	 viewBox="0 0 1280.8 687.9" style="enable-background:new 0 0 1280.8 687.9;" xml:space="preserve">
<style type="text/css">
	.st0{fill:none;}
	.st1{fill:#968B86;}
	.st2{fill:#26A69A;}
	.st3{fill:#258399;}
	.st4{fill:#9CCC65;}
	.st5{fill:#43A047;}
	.st6{fill:#95D5D5;}
	.st7{fill:#1B4C5E;}
	.st8{fill:#CEB72C;}
	.st9{fill:#0E7C76;}
	.st10{fill:#88A653;}
	.st11{fill:#FFFFFF;}
	.st12{fill:#FFCE00;}
	.st13{fill:#4A8988;}
	.st14{fill:#F1FFFF;}
	.st15{fill:#D3EFEA;}
	.st16{fill:#F44336;}
	.st17{fill-rule:evenodd;clip-rule:evenodd;fill:#37474F;}
	.st18{fill:#0277BD;}
	.st19{fill-rule:evenodd;clip-rule:evenodd;fill:#FFEA00;}
	.st20{fill:#A7623F;}
	.st21{fill:#915537;}
	.st22{fill:#543120;}
	.st23{fill:#BBADA6;}
	.st24{fill:url(#SVGID_1_);}
	.st25{fill:#8C827D;}
	.st26{fill:#8C5235;}
	.st27{fill:#7A482E;}
	.st28{fill:#A89488;}
	.st29{fill:#694A39;}
	.st30{fill:#B9BBBD;}
	.st31{fill:#ECEFF1;}
	.st32{fill:#ECEFF1;stroke:#607D8B;stroke-miterlimit:10;}
	.st33{fill:#607D8B;}
	.st34{fill:#B0BEC5;}
	.st35{fill-rule:evenodd;clip-rule:evenodd;fill:#626365;}
	.st36{fill-rule:evenodd;clip-rule:evenodd;fill:#F9A720;}
	.st37{fill:#546E7A;}
	.st38{opacity:0.8;fill:#F9F9F7;enable-background:new    ;}
	.st39{font-family:'Roboto-Black';}
	.st40{font-size:18.34px;}
	.st41{font-family:'Roboto-Regular';}
	.st42{font-size:15.1px;}
	.st43{font-family:'MyriadPro-Regular';}
	.st44{fill:#E70000;}
	.st45{opacity:0.7;fill:#F9F9F7;enable-background:new    ;}
	.st46{font-size:17px;}
	.st47{font-size:14.19px;}
	.st48{font-size:14px;}
	.st49{font-size:14.1859px;}
	.st50{opacity:0.9;}
	.st51{fill:#00E516;}
	.st52{fill:#C4E500;}
	.st53{font-size:12px;}
</style>
<pattern  y="687.9" width="3.6" height="4" patternUnits="userSpaceOnUse" id="Unnamed_Pattern_6" viewBox="3.6 -4.6 3.6 4" style="overflow:visible;">
	<g>
		<rect x="3.6" y="-4.6" class="st0" width="3.6" height="4"/>
		<rect x="3.6" y="-4.6" class="st0" width="3.6" height="4"/>
		<path class="st1" d="M7.2-4c0.3-0.2,0.5-0.4,0.9-0.6c0.3-0.2,0.7-0.3,1-0.3c0.7,0.1,1.3,0.4,1.8,0.9l-0.3-0.4
			c-0.1-0.1-0.3-0.2-0.4-0.3C9.8-5,9.4-5.1,9.1-5.1C8.3-5.1,7.6-4.7,7.2-4z"/>
		<path class="st1" d="M3.6-4c0.3-0.2,0.5-0.4,0.8-0.6c0.3-0.2,0.7-0.3,1-0.3C6.2-4.8,6.8-4.5,7.3-4L7-4.4C6.8-4.5,6.7-4.7,6.6-4.8
			C6.2-5,5.9-5.1,5.5-5.1C4.7-5.1,4-4.7,3.6-4z"/>
		<path class="st1" d="M0-4c0.3-0.2,0.5-0.4,0.8-0.6c0.3-0.2,0.7-0.3,1-0.3C2.5-4.8,3.1-4.5,3.6-4L3.3-4.4C3.2-4.5,3-4.7,2.9-4.8
			C2.5-5,2.2-5.1,1.8-5.1C1-5.1,0.4-4.7,0-4z"/>
		<path class="st1" d="M7.2-2c0.3-0.2,0.5-0.4,0.9-0.6c0.3-0.2,0.7-0.3,1-0.3c0.7,0.1,1.3,0.4,1.8,0.9l-0.3-0.4
			c-0.1-0.1-0.3-0.2-0.4-0.3C9.8-3,9.4-3.1,9.1-3.1C8.3-3.1,7.6-2.7,7.2-2z"/>
		<path class="st1" d="M3.6-2c0.3-0.2,0.5-0.4,0.8-0.6c0.3-0.2,0.7-0.3,1-0.3C6.2-2.8,6.8-2.5,7.3-2L7-2.4C6.8-2.5,6.7-2.7,6.6-2.8
			C6.2-3,5.9-3.1,5.5-3.1C4.7-3.1,4-2.7,3.6-2z"/>
		<path class="st1" d="M0-2c0.3-0.2,0.5-0.4,0.8-0.6c0.3-0.2,0.7-0.3,1-0.3C2.5-2.8,3.1-2.5,3.6-2L3.3-2.4C3.2-2.5,3-2.7,2.9-2.8
			C2.5-3,2.2-3.1,1.8-3.1C1-3.1,0.4-2.7,0-2z"/>
		<path class="st1" d="M7.2,0c0.3-0.2,0.5-0.4,0.9-0.6c0.3-0.2,0.7-0.3,1-0.3c0.7,0.1,1.3,0.4,1.8,0.9l-0.3-0.4
			c-0.1-0.1-0.3-0.2-0.4-0.3C9.8-1,9.4-1.1,9-1.1C8.3-1.1,7.6-0.7,7.2,0z"/>
		<path class="st1" d="M3.6,0c0.2-0.2,0.5-0.4,0.8-0.6c0.3-0.2,0.7-0.3,1-0.3C6.1-0.8,6.8-0.5,7.3,0L6.9-0.4
			C6.8-0.5,6.6-0.7,6.5-0.8C6.2-1,5.8-1.1,5.4-1.1C4.7-1.1,4-0.7,3.6,0z"/>
		<path class="st1" d="M0,0c0.3-0.2,0.5-0.4,0.8-0.6c0.3-0.2,0.7-0.3,1-0.3C2.5-0.8,3.1-0.5,3.6,0L3.3-0.4C3.2-0.5,3-0.7,2.9-0.8
			C2.6-1,2.2-1.1,1.8-1.1C1.1-1.1,0.4-0.7,0,0z"/>
	</g>
</pattern>
<title>intento-2</title>
<g id="mountains">
	<path class="st2" d="M119.6,576.9l81.8-214.5c10-26.2,35.9-38.4,58.6-27.7l11,5.2c18.2,8.6,39,2.6,51.7-14.9l81.1-111.7
		c15.8-21.8,43.5-25.1,62.8-7.5l63.5,58.1c21.2,19.4,52,13.2,66.5-13.3l78.6-144.2c17.2-31.6,56.3-33,75.2-2.7l101.5,163
		c17,27.2,51.1,29.4,70.5,4.5l16.2-20.8c18.6-23.9,50.9-23.1,68.6,1.7l45.3,63.5c16.1,22.5,44.6,25.6,64,6.9l0,0
		c23.5-22.7,59.2-12.5,71,20.4l84,234H119.6z"/>
	<path class="st3" d="M1255.7,556l-52.9-56.3c-12.5-13.3-31-19.1-48.8-15.3l-52.4,11.1c-10.7,2.3-21.8,1.1-31.9-3.3l-64.8-28.6
		c-13.3-5.8-28.3-5.9-41.7-0.2l-50,21.5c-18.4,7.9-39.8,4.6-54.9-8.6l-39.9-34.8c-16.2-14.1-35.4-24.3-56.2-29.7l-20.7-5.4
		c-24.2-6.4-49.7-6.1-73.8,0.8l0,0c-23.5,6.7-44.8,19.5-61.8,37.1l-13,13.5c-19,19.7-50,21.3-71,3.8l-7.9-6.6
		c-15.5-13-37.1-15.8-55.4-7.3l-20.5,9.5c-12.8,6-27.5,6.5-40.6,1.4l-15.1-5.8c-19.1-7.3-40.7-2.8-55.3,11.6l-18.2,18
		c-15.1,14.9-37.8,19.2-57.3,10.7l-42.4-18.3c-11.6-5-24.6-5.7-36.7-1.8l-63.5,20.4c-6.9,2.2-14.2,3-21.5,2.2l0,0
		c-23.7-2.5-46,11.3-54.3,33.6L23.5,556H1255.7z"/>
	<path class="st4" d="M1276.9,564.9l-135.3-73.6c-25.5-13.9-55-18.5-83.5-13.2l-110.8,20.7c-33.7,6.3-68.4-1.4-96.3-21.2l-60.3-42.9
		c-46.8-33.3-110.2-30.8-154.2,6.1l-7.8,6.6c-40.2,33.7-97.1,39-142.8,13.3l0,0c-42.2-23.7-94.2-21.2-133.9,6.5l-37.3,26
		c-23.1,16.1-51,24-79.2,22.5l-104.6-5.7c-27.6-1.5-54.9,6-77.7,21.5L3.3,565.3c-3.4,2.3-4.3,6.9-2,10.4c1.4,2.1,3.7,3.3,6.2,3.3
		h1265.9c4.1,0,7.5-3.3,7.5-7.4C1280.8,568.7,1279.3,566.2,1276.9,564.9z"/>
	<path class="st5" d="M45.8,569.1l252.6-8.1c14.8-0.5,29.3-3.8,42.8-9.8l55.8-24.9c37.9-16.8,78.2-27.4,119.5-31.3l119.1-11.3
		c66.9-6.4,134.3,4.8,195.4,32.5l61.3,27.9c15.1,6.8,31.5,10.3,48,10.2l221.2-1.4c21.2-0.1,42.3,3.8,62,11.5l41.8,16.3
		c9.4,3.7,6.7,17.1-3.5,17.1H26c-7.4,0-11.8-7.8-7.8-13.7l0,0C24.5,575,34.8,569.4,45.8,569.1z"/>
	<g id="trees">
		<circle class="st6" cx="905.8" cy="507.3" r="15.9"/>
		<path class="st6" d="M933.7,486.9c0,7.7-6.2,13.9-13.9,13.9s-13.9-6.2-13.9-13.9c0-7.7,6.2-13.9,13.9-13.9l0,0
			C927.5,473,933.7,479.2,933.7,486.9z"/>
		<path class="st6" d="M942.5,507.4c0,9.4-7.6,17-17,17s-17-7.6-17-17c0-9.4,7.6-17,17-17S942.5,498,942.5,507.4L942.5,507.4z"/>
		<path class="st6" d="M935.2,538.7h-28.1c-5.5,0-9.9-4.4-9.9-9.9c0,0,0,0,0,0l0,0c0-5.5,4.4-9.9,9.9-9.9c0,0,0,0,0,0h28.1
			c5.5,0,9.9,4.4,9.9,9.9l0,0l0,0C945.1,534.3,940.6,538.7,935.2,538.7L935.2,538.7z"/>
		<path class="st6" d="M945,528.1c0,8.2-6.6,14.8-14.8,14.8s-14.8-6.6-14.8-14.8c0-8.2,6.6-14.8,14.8-14.8
			C938.4,513.2,945,519.9,945,528.1z"/>
		<path class="st7" d="M917.8,556.9L917.8,556.9c-1.2,0-2.3-1-2.3-2.3v-51.2c0-1.2,1-2.3,2.3-2.3l0,0l0,0c1.2,0,2.3,1,2.3,2.3v51.2
			C920.1,555.9,919.1,556.9,917.8,556.9L917.8,556.9z"/>
		<path class="st7" d="M916.8,517.8L916.8,517.8c-0.4-0.4-0.4-1,0-1.4c0,0,0,0,0,0l8.9-8.9c0.4-0.4,1-0.4,1.4,0c0,0,0,0,0,0l0,0
			c0.4,0.4,0.4,1,0,1.4c0,0,0,0,0,0l-8.9,8.9C917.9,518.2,917.2,518.3,916.8,517.8C916.8,517.9,916.8,517.8,916.8,517.8z"/>
		<path class="st7" d="M907.9,519.6L907.9,519.6c0.4-0.4,1-0.4,1.4,0c0,0,0,0,0,0l8.9,8.9c0.4,0.4,0.4,1,0,1.4c0,0,0,0,0,0l0,0
			c-0.4,0.4-1,0.4-1.4,0c0,0,0,0,0,0l-8.9-8.9C907.5,520.7,907.5,520,907.9,519.6C907.8,519.6,907.9,519.6,907.9,519.6z"/>
		<path class="st8" d="M877,474.5c0,6.6-5.3,11.9-11.9,11.9s-11.9-5.3-11.9-11.9c0-6.6,5.3-11.9,11.9-11.9
			C871.6,462.6,877,467.9,877,474.5L877,474.5z"/>
		<path class="st8" d="M883.2,494.7c0,10.7-8.7,19.5-19.5,19.5s-19.5-8.7-19.5-19.5c0-10.7,8.7-19.5,19.5-19.5
			S883.2,484,883.2,494.7L883.2,494.7z"/>
		<path class="st8" d="M865.5,532.6c0,5.4-4.4,9.7-9.7,9.7s-9.7-4.4-9.7-9.7c0-5.4,4.4-9.7,9.7-9.7l0,0
			C861.1,522.9,865.5,527.2,865.5,532.6C865.5,532.6,865.5,532.6,865.5,532.6z"/>
		<path class="st8" d="M884,518.7c0,9.7-7.9,17.6-17.6,17.6s-17.6-7.9-17.6-17.6c0-9.7,7.9-17.6,17.6-17.6S884,508.9,884,518.7
			L884,518.7z"/>
		<circle class="st8" cx="854.5" cy="517.9" r="10.5"/>
		<path class="st8" d="M876.9,537.1c0,4.5-3.7,8.2-8.2,8.2c-4.5,0-8.2-3.7-8.2-8.2c0-4.5,3.7-8.2,8.2-8.2c0,0,0,0,0,0
			C873.3,528.9,876.9,532.5,876.9,537.1z"/>
		<path id="coño" class="st7" d="M864.5,561.3L864.5,561.3c-1.3,0-2.4-1.1-2.4-2.4v-69.6c0-1.3,1.1-2.4,2.4-2.4l0,0
			c1.3,0,2.4,1.1,2.4,2.4v69.5C866.8,560.2,865.8,561.3,864.5,561.3C864.5,561.3,864.5,561.3,864.5,561.3z"/>
		<ellipse class="st9" cx="892" cy="467.7" rx="19.5" ry="28"/>
		<path class="st9" d="M871.6,502.1c0,14,7.9,25.3,17.6,25.3s17.6-11.3,17.6-25.3c0-14-7.9-25.3-17.6-25.3S871.6,488.1,871.6,502.1z
			"/>
		<path class="st9" d="M890.7,501c0,8.3,4.7,15.1,10.5,15.1s10.5-6.7,10.5-15.1s-4.7-15.1-10.5-15.1S890.7,492.6,890.7,501z"/>
		<path class="st7" d="M891.2,556.3L891.2,556.3c1.3,0,2.4-1.1,2.4-2.4v-69.5c0-1.3-1.1-2.4-2.4-2.4l0,0c-1.3,0-2.4,1.1-2.4,2.4V554
			C888.9,555.3,889.9,556.3,891.2,556.3z"/>
		<path class="st7" d="M892.4,515.4L892.4,515.4c0.4-0.4,0.4-1.1,0-1.5l-9.3-9.3c-0.4-0.4-1.1-0.4-1.5,0c0,0,0,0,0,0l0,0
			c-0.4,0.4-0.4,1.1,0,1.5c0,0,0,0,0,0l9.3,9.3C891.3,515.9,891.9,515.9,892.4,515.4z"/>
		<path class="st8" d="M815.7,520.5c0,5.2-4.2,9.4-9.4,9.4c-5.2,0-9.4-4.2-9.4-9.4c0-5.2,4.2-9.4,9.4-9.4l0,0
			C811.5,511.1,815.7,515.3,815.7,520.5z"/>
		<circle class="st8" cx="830.9" cy="516.2" r="23.7"/>
		<circle class="st8" cx="838.9" cy="530.6" r="15.2"/>
		<path class="st8" d="M838.5,530.6c0,9.3-7.5,16.8-16.8,16.8c-9.3,0-16.8-7.5-16.8-16.8c0-9.3,7.5-16.8,16.8-16.8c0,0,0,0,0,0
			C831,513.9,838.5,521.4,838.5,530.6z"/>
		<path class="st7" d="M831.3,563.1L831.3,563.1c1.2,0,2.3-1,2.3-2.3l0,0v-51.2c0-1.2-1-2.3-2.3-2.3l0,0l0,0c-1.2,0-2.3,1-2.3,2.3
			v51.2C829.1,562.1,830.1,563.1,831.3,563.1z"/>
		<path class="st7" d="M832.4,524L832.4,524c0.4-0.4,0.4-1,0-1.4c0,0,0,0,0,0l-8.9-8.9c-0.4-0.4-1-0.4-1.4,0c0,0,0,0,0,0l0,0
			c-0.4,0.4-0.4,1,0,1.4c0,0,0,0,0,0l8.9,8.9C831.3,524.5,832,524.5,832.4,524C832.4,524.1,832.4,524.1,832.4,524z"/>
		<path class="st7" d="M841.3,525.8L841.3,525.8c-0.4-0.4-1-0.4-1.4,0c0,0,0,0,0,0l-8.9,8.9c-0.4,0.4-0.4,1,0,1.4c0,0,0,0,0,0l0,0
			c0.4,0.4,1,0.4,1.4,0c0,0,0,0,0,0l8.9-8.9C841.7,526.9,841.7,526.2,841.3,525.8C841.4,525.8,841.3,525.8,841.3,525.8z"/>
		<path class="st8" d="M545.4,414.8c0,6.6-5.3,11.9-11.9,11.9c-6.6,0-11.9-5.3-11.9-11.9c0-6.6,5.3-11.9,11.9-11.9
			S545.4,408.3,545.4,414.8C545.4,414.8,545.4,414.8,545.4,414.8z"/>
		<path class="st8" d="M551.6,435c0,10.7-8.7,19.5-19.5,19.5c-10.7,0-19.5-8.7-19.5-19.5c0-10.7,8.7-19.5,19.5-19.5
			S551.6,424.3,551.6,435C551.6,435,551.6,435,551.6,435z"/>
		<path class="st8" d="M552.5,459c0,9.7-7.9,17.6-17.6,17.5s-17.6-7.9-17.5-17.6c0-9.7,7.9-17.5,17.6-17.5
			C544.6,441.4,552.5,449.2,552.5,459C552.5,459,552.5,459,552.5,459z"/>
		<circle class="st8" cx="522.9" cy="458.2" r="10.5"/>
		<path class="st8" d="M533.9,473c0,5.4-4.4,9.7-9.7,9.7s-9.7-4.4-9.7-9.7c0-5.4,4.4-9.7,9.7-9.7l0,0
			C529.6,463.2,533.9,467.6,533.9,473z"/>
		<path class="st8" d="M545.4,477.4c0,4.5-3.7,8.2-8.2,8.2c-4.5,0-8.2-3.7-8.2-8.2c0-4.5,3.7-8.2,8.2-8.2c0,0,0,0,0,0
			C541.7,469.2,545.4,472.8,545.4,477.4C545.4,477.3,545.4,477.3,545.4,477.4z"/>
		<path class="st7" d="M532.9,501.6L532.9,501.6c-1.3,0-2.4-1.1-2.4-2.4c0,0,0,0,0,0v-69.5c0-1.3,1-2.4,2.3-2.4c0,0,0,0,0,0l0,0
			c1.3,0,2.4,1,2.4,2.3c0,0,0,0,0,0v69.5C535.3,500.6,534.2,501.6,532.9,501.6z"/>
		<path class="st7" d="M531.8,460.7L531.8,460.7c-0.4-0.4-0.4-1.1,0-1.5l9.3-9.3c0.4-0.4,1.1-0.4,1.5,0c0,0,0,0,0,0l0,0
			c0.4,0.4,0.4,1.1,0,1.5c0,0,0,0,0,0l-9.3,9.3C532.9,461.1,532.2,461.1,531.8,460.7z"/>
		<path class="st7" d="M522.4,462.5L522.4,462.5c0.4-0.4,1.1-0.4,1.5,0l9.3,9.3c0.4,0.4,0.4,1.1,0,1.5l0,0c-0.4,0.4-1.1,0.4-1.5,0
			l-9.3-9.3C522,463.6,522,462.9,522.4,462.5z"/>
		<ellipse class="st10" cx="567.5" cy="411.6" rx="19.5" ry="28"/>
		<path class="st10" d="M547.2,446c0,14,7.9,25.3,17.6,25.3s17.6-11.3,17.6-25.3s-7.9-25.3-17.6-25.3S547.2,432,547.2,446z"/>
		<path class="st10" d="M566.3,444.9c0,8.3,4.7,15.1,10.5,15.1s10.5-6.8,10.5-15.1s-4.7-15.1-10.5-15.1S566.3,436.5,566.3,444.9z"/>
		<path class="st10" d="M565.8,466.1c0,7.7,4.4,14,9.7,14s9.7-6.3,9.7-14s-4.4-14-9.7-14S565.8,458.4,565.8,466.1z"/>
		<path class="st10" d="M554.3,472.5c0,6.5,3.7,11.8,8.2,11.8s8.2-5.3,8.2-11.8s-3.7-11.7-8.2-11.7S554.3,466,554.3,472.5z"/>
		<path class="st7" d="M566.8,500.3L566.8,500.3c1.3,0,2.4-1.1,2.4-2.4v-69.5c0-1.3-1.1-2.4-2.4-2.4l0,0c-1.3,0-2.4,1.1-2.4,2.4
			v69.5C564.4,499.2,565.5,500.3,566.8,500.3z"/>
		<path class="st7" d="M567.9,459.4L567.9,459.4c0.4-0.4,0.4-1.1,0-1.5l-9.3-9.3c-0.4-0.4-1.1-0.4-1.5,0c0,0,0,0,0,0l0,0
			c-0.4,0.4-0.4,1.1,0,1.5c0,0,0,0,0,0l9.3,9.3C566.8,459.8,567.5,459.8,567.9,459.4z"/>
		<path class="st7" d="M577.2,461.2L577.2,461.2c-0.4-0.4-1.1-0.4-1.5,0c0,0,0,0,0,0l-9.3,9.3c-0.4,0.4-0.4,1.1,0,1.5l0,0
			c0.4,0.4,1.1,0.4,1.5,0l9.3-9.3C577.7,462.3,577.7,461.6,577.2,461.2C577.2,461.2,577.2,461.2,577.2,461.2z"/>
		<path class="st7" d="M901.7,517.3L901.7,517.3c-0.4-0.4-1.1-0.4-1.5,0l-9.3,9.3c-0.4,0.4-0.4,1.1,0,1.5l0,0c0.4,0.4,1.1,0.4,1.5,0
			l9.3-9.3C902.1,518.4,902.1,517.7,901.7,517.3z"/>
		<path class="st9" d="M878.8,528.6c0,6.5,3.7,11.8,8.2,11.8s8.2-5.3,8.2-11.8s-3.7-11.8-8.2-11.8S878.8,522.1,878.8,528.6z"/>
		<path class="st9" d="M890.2,522.2c0,7.7,4.4,14,9.7,14s9.7-6.3,9.7-14s-4.4-14-9.7-14S890.2,514.5,890.2,522.2z"/>
		<path class="st7" d="M854,522.2L854,522.2c0.4-0.4,1.1-0.4,1.5,0c0,0,0,0,0,0l9.3,9.3c0.4,0.4,0.4,1.1,0,1.5l0,0
			c-0.4,0.4-1.1,0.4-1.5,0l-9.3-9.3C853.6,523.3,853.6,522.6,854,522.2C854,522.2,854,522.2,854,522.2z"/>
		<path class="st7" d="M863.3,520.3L863.3,520.3c-0.4-0.4-0.4-1.1,0-1.5l9.3-9.3c0.4-0.4,1.1-0.4,1.5,0l0,0c0.4,0.4,0.4,1.1,0,1.5
			l-9.3,9.3C864.4,520.8,863.7,520.8,863.3,520.3z"/>
	</g>
</g>
<g id="clouds">
	<path class="st11" d="M999,147.2h89.1c3.9,0,7,3.1,7,7v23.9c0,3.9-3.1,7-7,7H999c-3.9,0-7-3.1-7-7v-23.9
		C992,150.3,995.1,147.2,999,147.2z"/>
	
		<ellipse transform="matrix(0.2297 -0.9733 0.9733 0.2297 677.0754 1171.0413)" class="st11" cx="1078.3" cy="157.8" rx="27.3" ry="27.3"/>
	
		<ellipse transform="matrix(0.2298 -0.9732 0.9732 0.2298 652.7289 1129.7584)" class="st11" cx="1040.1" cy="152.5" rx="32.6" ry="32.6"/>
	<path class="st11" d="M258.6,224.9h58.8c3.9,0,7,3.1,7,7v23.9c0,3.9-3.1,7-7,7h-58.8c-3.9,0-7-3.1-7-7v-23.9
		C251.6,228,254.7,224.9,258.6,224.9z"/>
	<circle class="st11" cx="307.7" cy="235.5" r="27.3"/>
	<path class="st11" d="M563,85.5h34.8c10.5,0,19-8.4,19-18.9c0,0,0,0,0-0.1l0,0c0-10.5-8.5-18.9-18.9-19c0,0,0,0-0.1,0H563
		c-10.5,0-18.9,8.5-18.9,18.9c0,0,0,0,0,0l0,0C544.1,77,552.6,85.5,563,85.5z"/>
	
		<ellipse transform="matrix(0.9733 -0.2297 0.2297 0.9733 1.615 130.3665)" class="st11" cx="560.7" cy="58.2" rx="27.3" ry="27.3"/>
	<path class="st11" d="M274.5,166.9h-65.2c-10.5,0-18.9-8.5-18.9-18.9l0,0l0,0c0-10.5,8.5-18.9,18.9-18.9l0,0h65.2
		c10.5,0,18.9,8.5,18.9,18.9l0,0l0,0C293.4,158.4,284.9,166.9,274.5,166.9L274.5,166.9z"/>
	<circle class="st11" cx="276.7" cy="139.6" r="27.3"/>
	<circle class="st11" cx="238.5" cy="134.3" r="32.6"/>
</g>
<g id="sun">
	<path class="st12" d="M900.8,180.1c-33.5,0-60.6-27.1-60.6-60.6s27.1-60.6,60.6-60.6s60.6,27.1,60.6,60.6c0,0,0,0,0,0
		C961.3,153,934.2,180.1,900.8,180.1z M900.8,65c-30.1,0-54.5,24.4-54.5,54.6c0,30.1,24.4,54.5,54.6,54.5
		c30.1,0,54.5-24.4,54.5-54.5C955.3,89.4,930.9,65,900.8,65z"/>
	<path class="st12" d="M900.8,35.2c-1.7,0-3-1.3-3-3V3c0-1.7,1.4-3,3-3c1.7,0,3,1.4,3,3v29.1C903.8,33.8,902.5,35.2,900.8,35.2
		C900.8,35.2,900.8,35.2,900.8,35.2z"/>
	<path class="st12" d="M900.8,239.1c-1.7,0-3-1.3-3-3v-29.2c0-1.7,1.4-3,3-3c1.7,0,3,1.4,3,3V236c0,1.7-1.3,3-3,3
		C900.8,239.1,900.8,239.1,900.8,239.1z"/>
	<path class="st12" d="M929.9,40.2c-0.3,0-0.7-0.1-1-0.2c-1.6-0.5-2.4-2.2-1.9-3.8c0,0,0,0,0-0.1l9.7-27.5c0.6-1.6,2.3-2.4,3.9-1.9
		c1.6,0.6,2.4,2.3,1.9,3.9l0,0l-9.7,27.5C932.4,39.4,931.2,40.2,929.9,40.2z"/>
	<path class="st12" d="M861.9,232.4c-0.3,0-0.7-0.1-1-0.2c-1.6-0.5-2.4-2.2-1.9-3.8c0,0,0,0,0,0l9.7-27.5c0.6-1.6,2.3-2.4,3.9-1.9
		c1.6,0.6,2.4,2.3,1.9,3.9l-9.7,27.5C864.3,231.6,863.2,232.4,861.9,232.4z"/>
	<path class="st12" d="M955.7,54.7c-0.7,0-1.4-0.2-1.9-0.7c-1.3-1-1.5-2.9-0.5-4.2c0,0,0,0,0,0l18.3-22.6c1.1-1.3,3-1.5,4.3-0.5
		s1.5,3,0.5,4.3l0,0l-18.3,22.6C957.5,54.2,956.6,54.7,955.7,54.7z"/>
	<path class="st12" d="M827.5,213.1c-1.7,0-3-1.3-3.1-2.9c0-0.7,0.2-1.4,0.7-2l18.3-22.6c1.1-1.3,3-1.5,4.3-0.5
		c1.3,1.1,1.5,3,0.5,4.3L829.8,212C829.3,212.7,828.4,213.1,827.5,213.1z"/>
	<path class="st12" d="M975.2,76.9c-1.7,0.1-3.1-1.2-3.1-2.9c0-1.1,0.5-2.2,1.5-2.7L998.5,56c1.4-0.9,3.3-0.4,4.2,1s0.4,3.3-1,4.2
		l0,0l-24.8,15.2C976.3,76.7,975.8,76.9,975.2,76.9z"/>
	<path class="st12" d="M801.5,183.5c-1.7,0.1-3-1.2-3.1-2.9c0-1.1,0.5-2.2,1.5-2.7l24.8-15.2c1.4-0.9,3.3-0.4,4.2,1s0.4,3.3-1,4.2
		L803,183C802.6,183.3,802,183.5,801.5,183.5z"/>
	<path class="st12" d="M986.2,104.3c-1.7,0.2-3.1-1-3.3-2.7s1-3.1,2.7-3.3l0,0l28.5-6.1c1.6-0.3,3.2,0.7,3.6,2.3
		c0.3,1.6-0.7,3.2-2.3,3.6l-28.5,6.1C986.6,104.3,986.4,104.4,986.2,104.3z"/>
	<path class="st12" d="M786.8,146.8c-1.7,0.2-3.1-1-3.3-2.7s1-3.1,2.7-3.3l0,0l28.5-6.1c1.6-0.3,3.2,0.7,3.6,2.3
		c0.3,1.6-0.7,3.2-2.3,3.6l-28.5,6.1C787.3,146.8,787,146.8,786.8,146.8z"/>
	<path class="st12" d="M1016.3,137.7c-0.1,0-0.3,0-0.4,0l-28.9-3.8c-1.7-0.2-2.8-1.7-2.6-3.4s1.7-2.8,3.4-2.6l28.9,3.8
		c1.7,0.1,2.9,1.5,2.8,3.2C1019.4,136.5,1017.9,137.8,1016.3,137.7z"/>
	<path class="st12" d="M814.1,111.2c-0.1,0-0.3,0-0.4,0l-28.9-3.8c-1.7-0.2-2.8-1.7-2.6-3.4c0.2-1.7,1.7-2.8,3.4-2.6l28.9,3.8
		c1.7,0.1,2.9,1.5,2.8,3.2S815.8,111.3,814.1,111.2L814.1,111.2z"/>
	<path class="st12" d="M1004.6,175.4c-0.5,0-0.9-0.1-1.4-0.3l-26-13.2c-1.5-0.8-2.1-2.6-1.3-4.1c0.8-1.5,2.6-2.1,4.1-1.3l26,13.2
		c1.5,0.7,2.2,2.5,1.5,4C1007,174.7,1005.8,175.4,1004.6,175.4z"/>
	<path class="st12" d="M822.8,83c-0.5,0-0.9-0.1-1.4-0.3l-26-13.2c-1.5-0.8-2.1-2.6-1.3-4.1c0.8-1.5,2.6-2.1,4.1-1.3l0,0l26,13.2
		c1.5,0.7,2.2,2.5,1.5,4C825.2,82.3,824.1,83,822.8,83z"/>
	<path class="st12" d="M981,207c-0.8,0-1.6-0.3-2.2-1l-20.1-21.1c-1.2-1.2-1.1-3.1,0.1-4.3c1.2-1.2,3.1-1.1,4.3,0.1l20.1,21.1
		c1.2,1.2,1.2,3.1,0,4.2C982.6,206.7,981.8,207,981,207z"/>
	<path class="st12" d="M840.5,59.2c-0.8,0-1.6-0.3-2.2-0.9l-20.1-21.1c-1.2-1.2-1.1-3.1,0.1-4.3c1.2-1.2,3.1-1.1,4.3,0.1l20.1,21.1
		c1.2,1.2,1.2,3.1,0,4.2C842.2,58.9,841.4,59.3,840.5,59.2L840.5,59.2z"/>
	<path class="st12" d="M948.3,228.9c-1.2,0-2.3-0.7-2.8-1.8l-11.9-26.6c-0.7-1.5,0-3.3,1.5-4c1.5-0.7,3.3,0,4,1.5l0,0l11.9,26.6
		c0.7,1.5,0,3.3-1.5,4C949.1,228.8,948.7,228.9,948.3,228.9L948.3,228.9z"/>
	<path class="st12" d="M865.1,42.8c-1.2,0-2.3-0.7-2.8-1.8l-11.9-26.6c-0.7-1.5,0-3.3,1.5-4c1.5-0.7,3.3,0,4,1.5l11.9,26.6
		c0.7,1.5,0,3.3-1.5,4c0,0,0,0-0.1,0C866,42.7,865.6,42.8,865.1,42.8z"/>
	<circle class="st12" cx="900.7" cy="119.5" r="42.4"/>
</g>
<g id="solarPanels">
	<polygon class="st11" points="186.9,507.4 181.8,503.7 179.4,496.9 193.9,507.4 	"/>
	<rect x="243.2" y="524.4" class="st13" width="14.3" height="50.3"/>
	<rect x="243.2" y="519.9" class="st7" width="14.3" height="35.9"/>
	<path class="st7" d="M269.9,584.5h-39.2l0,0v-14.8c0-2.2,1.8-4,4-4h31.2c2.2,0,4,1.8,4,4L269.9,584.5L269.9,584.5z"/>
	<polygon class="st7" points="191.3,552.9 320.1,552.9 323.5,548.5 296.2,470.3 166.7,470.3 163.5,472.9 	"/>
	<polygon class="st13" points="322.2,547.8 295.5,471.3 167.3,471.3 193.9,547.8 	"/>
	<path class="st7" d="M168.7,472.4h126.2l26,74.4H194.6L168.7,472.4"/>
	<path class="st0" d="M193.2,548.8h128.6c0.7,0,1.3-0.6,1.3-1.3c0-0.1,0-0.3-0.1-0.4l-26.8-76.7H167c-0.4,0-0.8,0.4-0.8,0.8
		c0,0.1,0,0.2,0,0.3L193.2,548.8z"/>
	<polygon class="st13" points="322.2,547.8 295.5,471.3 167.3,471.3 193.9,547.8 	"/>
	<polygon class="st14" points="319.2,545.7 294,473.5 170.3,473.5 195.4,545.7 	"/>
	<polygon class="st15" points="305.5,507.4 294,474.6 273.2,474.6 254.5,474.6 266,507.4 	"/>
	<polygon class="st15" points="267.4,511.7 278.9,544.5 297.6,544.5 318.4,544.5 306.9,511.7 	"/>
	<polygon class="st15" points="261.9,507.4 250.4,474.6 233.9,474.6 215.2,474.6 226.6,507.4 	"/>
	<polygon class="st15" points="228.1,511.7 239.5,544.5 258.2,544.5 274.8,544.5 263.4,511.7 	"/>
	<polygon class="st15" points="222.6,507.4 211.1,474.6 192.4,474.6 171.6,474.6 183.1,507.4 	"/>
	<polygon class="st15" points="184.5,511.7 196,544.5 216.8,544.5 235.5,544.5 224,511.7 	"/>
	<polygon class="st14" points="216.2,489.3 196.1,474.6 203.1,474.6 213.9,482.5 	"/>
	<polygon class="st14" points="241.2,507.4 221.7,493.2 219.3,486.4 248.2,507.4 	"/>
	<polygon class="st14" points="295.5,507.4 255.9,478.6 254.5,474.6 257.4,474.6 302.5,507.4 	"/>
	<polygon class="st14" points="301.3,511.7 306.9,511.7 308.8,517.1 	"/>
	<polygon class="st14" points="304.2,503.9 264,474.6 273.2,474.6 287.3,474.6 296.3,481.2 	"/>
	<polygon class="st14" points="268.9,527.6 247,511.7 254,511.7 266.5,520.8 	"/>
	<polygon class="st14" points="272,524.8 299.1,544.5 297.6,544.5 292.1,544.5 274.4,531.6 	"/>
	<polygon class="st14" points="234.7,542.3 192.7,511.7 199.7,511.7 232.3,535.5 	"/>
	<polygon class="st14" points="239.5,544.5 237.8,539.4 244.8,544.5 	"/>
	<path class="st13" d="M270,578.2c-0.1-4.5-2.7-8.6-6.6-10.7c-1.9-1-4.1-1.5-6.3-1.5h-6.7h-6.7c-2.2-0.1-4.4,0.4-6.3,1.5
		c-4,2.1-6.5,6.2-6.6,10.7c-0.1-2.3,0.5-4.5,1.6-6.5c1.1-2,2.8-3.6,4.8-4.7c2-1.1,4.3-1.7,6.6-1.6h6.7h6.7c2.3,0,4.5,0.5,6.5,1.6
		c2,1.1,3.6,2.8,4.8,4.7C269.4,573.7,270,576,270,578.2z"/>
	<polygon class="st11" points="40.9,507.4 35.8,503.7 33.4,496.9 47.8,507.4 	"/>
	<rect x="97.2" y="524.4" class="st13" width="14.3" height="50.3"/>
	<rect x="97.2" y="519.9" class="st7" width="14.3" height="35.9"/>
	<path class="st7" d="M124,584.5H84.8l0,0v-14.8c0-2.2,1.8-4,4-4h31.1c2.2,0,4,1.8,4,4L124,584.5L124,584.5z"/>
	<polygon class="st7" points="45.3,552.9 174.2,552.9 177.5,548.5 150.3,470.3 20.7,470.3 17.5,472.9 	"/>
	<polygon class="st13" points="176.2,547.8 149.6,471.3 21.3,471.3 47.9,547.8 	"/>
	<path class="st7" d="M22.7,472.4h126.2l26,74.4H48.6L22.7,472.4"/>
	<path class="st0" d="M47.2,548.8h128.6c0.7,0,1.3-0.6,1.3-1.3c0-0.1,0-0.3-0.1-0.4l-26.8-76.7H21c-0.4,0-0.8,0.4-0.8,0.8
		c0,0.1,0,0.2,0,0.3L47.2,548.8z"/>
	<polygon class="st13" points="176.2,547.8 149.6,471.3 21.3,471.3 47.9,547.8 	"/>
	<polygon class="st14" points="173.2,545.7 148,473.5 24.3,473.5 49.4,545.7 	"/>
	<polygon class="st15" points="159.5,507.4 148,474.6 127.2,474.6 108.5,474.6 119.9,507.4 	"/>
	<polygon class="st15" points="121.4,511.7 132.9,544.5 151.6,544.5 172.4,544.5 160.9,511.7 	"/>
	<polygon class="st15" points="115.9,507.4 104.4,474.6 87.9,474.6 69.2,474.6 80.6,507.4 	"/>
	<polygon class="st15" points="82.1,511.7 93.6,544.5 112.2,544.5 128.8,544.5 117.4,511.7 	"/>
	<polygon class="st15" points="76.6,507.4 65.1,474.6 46.4,474.6 25.6,474.6 37.1,507.4 	"/>
	<polygon class="st15" points="38.5,511.7 50,544.5 70.8,544.5 89.5,544.5 78.1,511.7 	"/>
	<polygon class="st14" points="70.2,489.3 50.1,474.6 57.1,474.6 67.9,482.5 	"/>
	<polygon class="st14" points="95.2,507.4 75.7,493.2 73.3,486.4 102.2,507.4 	"/>
	<polygon class="st14" points="149.5,507.4 109.9,478.6 108.5,474.6 111.4,474.6 156.5,507.4 	"/>
	<polygon class="st14" points="155.3,511.7 160.9,511.7 162.8,517.1 	"/>
	<polygon class="st14" points="158.2,503.9 118,474.6 127.2,474.6 141.3,474.6 150.3,481.2 	"/>
	<polygon class="st14" points="122.9,527.6 101,511.7 108,511.7 120.6,520.8 	"/>
	<polygon class="st14" points="126,524.8 153.1,544.5 151.6,544.5 146.1,544.5 128.4,531.6 	"/>
	<polygon class="st14" points="88.7,542.3 46.7,511.7 53.7,511.7 86.3,535.5 	"/>
	<polygon class="st14" points="93.6,544.5 91.8,539.4 98.8,544.5 	"/>
	<path class="st13" d="M123.9,578.2c-0.1-4.5-2.7-8.6-6.6-10.7c-1.9-1-4.1-1.5-6.3-1.5h-6.7h-6.7c-2.2-0.1-4.4,0.4-6.3,1.5
		c-4,2.2-6.5,6.2-6.6,10.7c-0.1-2.3,0.5-4.5,1.6-6.5c1.1-2,2.8-3.6,4.8-4.7c2-1.1,4.3-1.7,6.6-1.6h6.7h6.7c2.3,0,4.5,0.5,6.6,1.6
		c2,1.1,3.6,2.8,4.8,4.7C123.5,573.7,124,576,123.9,578.2z"/>
</g>
<g id="batteryPaint">
	<path class="st16" d="M586.4,491.5h109.3c4.1,0,7.3,3.3,7.3,7.3v61.5c0,4.1-3.3,7.3-7.3,7.3H586.4c-4.1,0-7.3-3.3-7.3-7.3v-61.5
		C579,494.8,582.3,491.5,586.4,491.5z"/>
	<path class="st17" d="M597.1,480.6h10.3c2,0,3.7,1.6,3.7,3.7v3.9c0,2-1.6,3.7-3.7,3.7h-10.3c-2,0-3.7-1.6-3.7-3.7v-3.9
		C593.4,482.3,595,480.6,597.1,480.6z M674.7,480.6H685c2,0,3.7,1.6,3.7,3.7v3.9c0,2-1.7,3.7-3.7,3.7h-10.3c-2,0-3.7-1.6-3.7-3.7
		v-3.9C671,482.3,672.6,480.6,674.7,480.6L674.7,480.6z"/>
	<path class="st18" d="M579,486.2h124.1c1.3,0,2.3,1,2.3,2.3v19.1c0,1.3-1,2.3-2.3,2.3H579c-1.3,0-2.3-1-2.3-2.3v-19.1
		C576.7,487.3,577.7,486.2,579,486.2z"/>
	<polygon class="st19" points="641.4,536.9 644.3,535.7 650.5,533.2 647.6,539.2 638.8,557.5 640,543 637.5,544.1 631.6,546.5 
		634.2,540.7 643,520.4 	"/>
</g>
<g id="house">
	<path class="st11" d="M1045.7,296.5c5.7-6.6,0.7-12.7-4.3-17.8c-2.5-2.6-5.3-5.1-7-8.4c-4.3-8.3-0.4-16.9-1.1-25.5
		c-0.1-2.5-1.1-5-2.8-6.9c-1.7-1.7-3.8-2.8-6.2-3.2c-6-1.2-14.4,0.3-17.9,6c-5.2,8.7,6,15.8,7.7,23.7c1.8,8.4-1.8,14.8-9.4,20.4
		c-8.6,6.3-14,13.3-7.7,21.9c5.5,7.6,15,11.8,24.8,16.6c10.8,5.3,6.2,11.6,5,19.5c1.5-1.6,10-4.3,11.3-9.9c1.8-8-8.3-8.8-13.2-14.1
		c-3-3.3-3.8-9.3-0.2-12.8C1029.6,301.2,1041,301.9,1045.7,296.5z"/>
	<rect x="1013.9" y="355.8" class="st20" width="30.2" height="36.8"/>
	<rect x="1013.9" y="379.7" class="st21" width="30.2" height="7.8"/>
	<rect x="1013.9" y="364.8" class="st21" width="30.2" height="7.8"/>
	<rect x="1010.7" y="350.1" class="st22" width="36.6" height="11.3"/>
	<polygon class="st23" points="952.5,478.5 1007.9,390.9 1142.2,390.9 1086.8,478.5 	"/>
	<pattern  id="SVGID_1_" xlink:href="#Unnamed_Pattern_6" patternTransform="matrix(1 0 0 -1 -40.97 -16234.3301)">
	</pattern>
	<polygon class="st24" points="952.5,478.5 1007.9,390.9 1142.2,390.9 1086.8,478.5 	"/>
	<polygon class="st25" points="1194.3,486.1 1174.3,486.1 1133.7,408.8 1142.2,396.4 1193.3,480.1 	"/>
	<polygon class="st20" points="1138.1,408.8 1180.7,475.8 1180.7,569.4 1086.8,569.4 1086.8,482.3 	"/>
	<rect x="1086.8" y="555.8" class="st21" width="93.9" height="7.8"/>
	<rect x="1086.8" y="540.8" class="st21" width="93.9" height="7.8"/>
	<rect x="1086.8" y="525.8" class="st21" width="93.9" height="7.8"/>
	<rect x="1086.8" y="510.8" class="st21" width="93.9" height="7.8"/>
	<rect x="1086.8" y="495.9" class="st21" width="93.9" height="7.8"/>
	<polygon class="st21" points="1180.7,488.6 1086.8,488.6 1086.8,482.3 1087.8,480.9 1180.7,480.9 	"/>
	<polygon class="st21" points="1179.3,473.7 1092.8,473.7 1098.2,465.9 1174.3,465.9 	"/>
	<polygon class="st21" points="1169.8,458.7 1103.2,458.7 1108.7,450.9 1164.8,450.9 	"/>
	<polygon class="st21" points="1160.2,443.7 1113.7,443.7 1119.2,435.9 1155.3,435.9 	"/>
	<polygon class="st21" points="1150.7,428.7 1124.2,428.7 1129.6,420.9 1145.7,420.9 	"/>
	<polygon class="st21" points="1141.2,413.7 1134.6,413.7 1138.1,408.8 	"/>
	<polygon class="st26" points="1086.8,486.4 1086.8,569.4 970.2,562 970.2,486.1 	"/>
	<rect x="970.2" y="555.8" class="st27" width="116.6" height="7.8"/>
	<rect x="970.2" y="540.8" class="st27" width="116.6" height="7.8"/>
	<rect x="970.2" y="525.8" class="st27" width="116.6" height="7.8"/>
	<rect x="970.2" y="510.8" class="st27" width="116.6" height="7.8"/>
	<rect x="970.2" y="495.9" class="st27" width="116.6" height="7.8"/>
	<polygon class="st27" points="1086.8,488.6 970.2,488.6 970.2,482.3 971.4,480.9 1086.8,480.9 	"/>
	<polygon class="st25" points="952.5,478.5 955.8,486.1 1090.2,486.1 1086.8,478.5 	"/>
	<polygon class="st22" points="1142.2,390.9 1086.8,478.5 1090.2,486.1 1142.2,402.1 1194.3,486.1 1197.7,478.5 	"/>
	<rect x="994.6" y="504.7" class="st11" width="67.4" height="44.3"/>
	<rect x="1024.7" y="504.2" class="st27" width="7.1" height="45.3"/>
	<rect x="994.6" y="523" class="st27" width="67.4" height="7.7"/>
	<rect x="990.6" y="501.3" class="st22" width="75.4" height="8.1"/>
	<path class="st11" d="M1148.3,454.6c-0.8-7.1-5.4-12.5-10.9-12.5s-10.1,5.4-10.9,12.5c-0.2,1.5-0.2,3.1,0,4.6
		c0.8,7.1,5.4,12.5,10.9,12.5s10.1-5.4,10.9-12.5C1148.5,457.7,1148.5,456.2,1148.3,454.6z"/>
	<path class="st23" d="M1137.5,504.2L1137.5,504.2c9.1,0,16.5,8.4,16.5,18.8v45c0,0.3-0.2,0.5-0.4,0.5c0,0,0,0,0,0h-32.2
		c-0.3,0-0.4-0.2-0.4-0.5c0,0,0,0,0,0v-45C1120.9,512.6,1128.3,504.2,1137.5,504.2z"/>
	<path class="st28" d="M1127.8,535c0-1.3-0.1-2.8-0.2-4.3c-0.1-0.9-0.2-1.8-0.4-2.7s-0.3-1.7-0.3-2.6c-0.1-1.2-0.2-2.5-0.2-3.7
		c0-1.9-0.2-3.8-0.5-5.6c-0.3-1.7-0.9-3.2-1.8-4.7c-0.2,0.3-0.3,0.5-0.5,0.8c0.7,1.3,1.2,2.6,1.5,4.1c0.3,1.8,0.5,3.6,0.5,5.5
		c0.1,1.2,0.1,2.5,0.2,3.8c0.1,0.9,0.2,1.8,0.4,2.6s0.3,1.8,0.4,2.6c0.2,1.4,0.2,2.8,0.2,4.2c0.1,6.7-0.2,13.5-0.5,20.1
		c-0.2,4.4-0.4,8.9-0.5,13.4h0.8c0.1-4.5,0.3-8.9,0.5-13.3C1127.6,548.6,1127.9,541.8,1127.8,535z"/>
	<path class="st28" d="M1135.1,556.4c-0.6-3.9-1-7.9-1.2-11.8c0-2.6,0.2-5.2,0.3-7.7c0.4-3.7,0.4-7.4,0.1-11.1
		c-0.2-1.8-0.5-3.5-0.8-5.3c-0.6-2.9-0.9-5.9-0.9-8.8c0.1-1.2,0.2-2.3,0.4-3.5s0.3-2.3,0.4-3.5l-0.8,0.3c-0.1,1-0.2,2-0.4,3.1
		s-0.3,2.4-0.4,3.6c-0.1,3,0.3,6.1,0.9,9.1c0.3,1.7,0.6,3.5,0.8,5.2c0.3,3.6,0.2,7.3-0.2,10.9c-0.2,2.5-0.3,5.2-0.3,7.8
		c0.1,4,0.5,8,1.2,12c0.6,3.9,1,7.9,1.1,11.9h0.8C1136.1,564.5,1135.7,560.4,1135.1,556.4z"/>
	<path class="st28" d="M1140.6,562.1c0-1,0.1-1.9,0.3-2.9l0.1-0.5c1.3-8.7,0.8-17.6,0.4-26.2c-0.2-4.4-0.5-8.9-0.5-13.3
		c0-0.5,0-1.1,0-1.6c0-1.9,0-3.8-0.1-5.7c-0.1-1.1-0.2-2.2-0.3-3.3c-0.2-1.3-0.3-2.6-0.4-3.9v-0.3c-0.3,0-0.6-0.1-0.8-0.1
		c0,0.2,0,0.3,0,0.5c0.1,1.3,0.2,2.6,0.4,3.9c0.1,1.1,0.3,2.2,0.3,3.2c0.1,1.9,0.1,3.8,0.1,5.6c0,0.5,0,1.1,0,1.7
		c0,4.4,0.3,9,0.5,13.3c0.5,8.6,0.9,17.4-0.4,26l-0.1,0.5c-0.2,1-0.3,2-0.3,3c0,1.8,0.3,3.6,0.8,5.4l0.2,1h0.8l-0.3-1.3
		C1140.9,565.5,1140.7,563.8,1140.6,562.1z"/>
	<path class="st28" d="M1147.9,554c0-3.5,0.1-7.2-0.2-10.8c-0.1-1-0.2-2-0.3-3c-0.3-2.7-0.4-5.3-0.3-8c0.1-1.3,0.3-2.5,0.5-3.8
		s0.4-2.6,0.5-4c0.1-3.4-0.1-6.8-0.7-10.1c-0.4-2.3-0.6-4.7-0.8-7c-0.3-0.2-0.6-0.4-0.8-0.6c0.1,2.6,0.3,5.2,0.8,7.7
		c0.6,3.3,0.8,6.6,0.7,9.9c-0.1,1.3-0.3,2.6-0.5,3.8s-0.4,2.5-0.5,3.9c-0.1,2.7,0,5.4,0.3,8.2c0.1,1,0.2,2,0.3,3
		c0.3,3.5,0.2,7.2,0.2,10.7c-0.2,4.8,0,9.7,0.6,14.5h0.8C1148,563.6,1147.8,558.8,1147.9,554z"/>
	<path class="st29" d="M1137.5,504.2c-0.5,0-1.1,0-1.6,0.1c8.3,0.9,14.9,9,14.9,18.7v45c0,0.3-0.2,0.5-0.4,0.5c0,0,0,0,0,0h3.3
		c0.3,0,0.4-0.2,0.4-0.5c0,0,0,0,0,0v-45C1154,512.6,1146.6,504.2,1137.5,504.2z"/>
	<path class="st29" d="M1147.8,537.7c0,1.4-0.8,2.5-1.9,2.5s-1.9-1.1-1.9-2.5s0.8-2.5,1.9-2.5S1147.8,536.3,1147.8,537.7z"/>
	<path class="st27" d="M1148.3,454.6h-21.8c-0.2,1.5-0.2,3.1,0,4.6h21.8C1148.5,457.7,1148.5,456.2,1148.3,454.6z"/>
	<path class="st27" d="M1137.4,442.2c-0.6,0-1.1,0.1-1.7,0.2v29.2c1.1,0.3,2.3,0.3,3.4,0v-29.2
		C1138.5,442.2,1138,442.2,1137.4,442.2z"/>
	<path class="st30" d="M1141.1,391.4c-0.8,0.9-1.8,1.7-2.8,2.3c-1.1,0.7-2.2,1.1-3.5,1.3c-1.3,0.1-2.5-0.1-3.6-0.8
		c-0.3-0.2-0.5-0.3-0.8-0.5l-0.6-0.7c-0.4-0.5-0.7-1-1-1.5c0.7,1,1.6,1.8,2.6,2.4c1,0.6,2.2,0.8,3.3,0.7c1.2-0.2,2.3-0.5,3.3-1.1
		C1139.2,392.8,1140.2,392.1,1141.1,391.4z"/>
</g>
<g id="tuberias">
	<g id="huecos">
		<ellipse cx="874.5" cy="584" rx="37" ry="3.1"/>
		<ellipse cx="356.7" cy="582.3" rx="11.1" ry="3.5"/>
		<ellipse cx="549" cy="595.1" rx="36.7" ry="1.7"/>
	</g>
	<g id="toBattery">
		<rect x="515.8" y="596.8" class="st31" width="13.8" height="60.9"/>
		<rect x="515.8" y="591.3" class="st11" width="13.8" height="4.2"/>
	</g>
	<path id="divider" class="st32" d="M505.1,658.4h38.4c2,0,3.6,1.6,3.6,3.6v21.8c0,2-1.6,3.6-3.6,3.6h-38.4c-2,0-3.6-1.6-3.6-3.6
		V662C501.5,660,503.1,658.4,505.1,658.4z"/>
	<g id="fromBatteryToCostumer_1_">
		<rect x="846.5" y="595.4" class="st31" width="14.4" height="23.9"/>
		<rect x="566.8" y="591.3" class="st11" width="14" height="4.2"/>
		<rect x="846.5" y="569.2" class="st31" width="13.8" height="15.2"/>
		<rect x="566.8" y="597.3" class="st31" width="14" height="22"/>
		<rect x="573.8" y="612" class="st31" width="280" height="14.3"/>
		<path class="st31" d="M849.5,611.3h7.6c2.1,0,3.7,1.7,3.7,3.7v7.6c0,2.1-1.7,3.7-3.7,3.7h-7.6c-2.1,0-3.7-1.7-3.7-3.7v-7.6
			C845.8,613,847.5,611.3,849.5,611.3z"/>
		<path class="st31" d="M570.5,611.3h7.6c2.1,0,3.7,1.7,3.7,3.7v7.6c0,2.1-1.7,3.7-3.7,3.7h-7.6c-2.1,0-3.7-1.7-3.7-3.7v-7.6
			C566.8,613,568.5,611.3,570.5,611.3z"/>
	</g>
	<g id="fromBatteryToCostumer">
		<rect x="867.2" y="596.8" class="st31" width="13.6" height="43.5"/>
		<rect x="541.8" y="591.3" class="st11" width="14.1" height="4.2"/>
		<rect x="867.2" y="569.2" class="st31" width="13.8" height="15.2"/>
		<rect x="541.8" y="597.3" class="st31" width="14.1" height="42"/>
		<rect x="548.8" y="632.8" class="st31" width="325" height="13.5"/>
		<path class="st31" d="M869.5,631.3h7.6c2.1,0,3.7,1.7,3.7,3.7v7.6c0,2.1-1.7,3.7-3.7,3.7h-7.6c-2.1,0-3.7-1.7-3.7-3.7v-7.6
			C865.8,633,867.5,631.3,869.5,631.3z"/>
		<path class="st31" d="M545.5,631.3h7.6c2.1,0,3.7,1.7,3.7,3.7v7.6c0,2.1-1.7,3.7-3.7,3.7h-7.6c-2.1,0-3.7-1.7-3.7-3.7v-7.6
			C541.8,633,543.5,631.3,545.5,631.3z"/>
	</g>
	<g id="fromSolarPanelToCostumer">
		<rect x="356.8" y="666" class="st31" width="145" height="14.4"/>
		<rect x="349.8" y="596.8" class="st31" width="13.8" height="76.5"/>
		<rect x="886.6" y="596.8" class="st31" width="14.2" height="77.5"/>
		<rect x="349.8" y="566.4" class="st31" width="13.8" height="17"/>
		<rect x="886.6" y="569.2" class="st31" width="13.8" height="15.2"/>
		<rect x="547.8" y="667.4" class="st31" width="347" height="13.8"/>
		<path class="st31" d="M889.5,666.3h7.6c2.1,0,3.7,1.7,3.7,3.7v7.6c0,2.1-1.7,3.7-3.7,3.7h-7.6c-2.1,0-3.7-1.7-3.7-3.7v-7.6
			C885.8,668,887.5,666.3,889.5,666.3z"/>
		<path class="st31" d="M353.5,665.3h7.6c2.1,0,3.7,1.7,3.7,3.7v7.6c0,2.1-1.7,3.7-3.7,3.7h-7.6c-2.1,0-3.7-1.7-3.7-3.7v-7.6
			C349.8,667,351.5,665.3,353.5,665.3z"/>
	</g>
</g>
<g id="VariableBoxes">
	<g id="solarPanelBox">
		<rect x="347" y="526.5" class="st33" width="34.6" height="40.8"/>
		<rect x="336" y="526.5" class="st34" width="40.8" height="40.8"/>
		<polygon class="st35" points="356.4,531.3 365.4,548.8 347.3,548.8 		"/>
		<polygon class="st36" points="356.4,533.1 360,540 364.1,548 356.6,548 348.9,548 352.7,540 		"/>
		<polygon class="st35" points="356.3,542 357,541.8 358.4,541.2 357.7,542.6 355.7,546.7 356,543.4 355.4,543.7 354.1,544.2 
			354.7,542.9 356.7,538.3 		"/>
		<rect x="339.2" y="539.7" class="st37" width="1.3" height="6.3"/>
	</g>
	<g id="batteryBox">
		<rect x="508.9" y="514.1" class="st34" width="78.1" height="78.1"/>
		<polygon class="st35" points="548,523.2 565.4,556.8 530.6,556.8 		"/>
		<polygon class="st36" points="548,526.7 555,540 562.9,555.2 548.5,555.2 533.7,555.2 541,540 		"/>
		<polygon class="st35" points="547.9,543.8 549.2,543.3 551.9,542.2 550.6,544.8 546.8,552.8 547.3,546.5 546.2,546.9 543.7,548 
			544.8,545.4 548.6,536.7 		"/>
		<rect x="515.1" y="539.3" class="st37" width="2.4" height="12.1"/>
	</g>
	<g id="costumerBox">
		<rect x="858.7" y="509.7" class="st33" width="51.3" height="60.4"/>
		<rect x="842.3" y="509.7" class="st34" width="60.4" height="60.4"/>
		<polygon class="st35" points="872.5,516.7 886,542.7 859.1,542.7 		"/>
		<polygon class="st36" points="872.5,519.4 877.9,529.7 884.1,541.4 872.9,541.4 861.5,541.4 867.1,529.7 		"/>
		<polygon class="st35" points="872.5,532.6 873.5,532.3 875.5,531.4 874.6,533.4 871.6,539.6 872,534.7 871.2,535.1 869.2,535.9 
			870,533.9 873,527.1 		"/>
		<rect x="847.1" y="529.2" class="st37" width="1.9" height="9.3"/>
	</g>
</g>
<g id="solarPanelDisplay">
	<path id="solarPanelBackground" class="st38" d="M323,396.4h136.7c4,0,7.2,3.2,7.2,7.2v104.7c0,4-3.2,7.2-7.2,7.2H323
		c-4,0-7.2-3.2-7.2-7.2V403.5C315.8,399.6,319,396.4,323,396.4z"/>
	<text id="solarPanelTitle" transform="matrix(1 0 0 1 324.93 429.75)" class="st39 st40">Solar PV</text>
	<text id="solarPanelTempTitle" transform="matrix(1 0 0 1 324.93 457.17)" class="st41 st42">Temp:</text>
	<text id="solarPanelTempValue" transform="matrix(1 0 0 1 365.42 458.1799)" class="st41 st42">15</text>
	<text id="solarPanelTempUnit" transform="matrix(1 0 0 1 385.9998 457.17)" class="st43 st42">C</text>
	<text id="solarPanelRadiationTitle" transform="matrix(1 0 0 1 324.93 478.75)" class="st41 st42">Radiation:</text>
	<text id="solarPanelPowerTitle" transform="matrix(1 0 0 1 324.93 498.17)" class="st41 st42">Power:</text>
	<text id="solarPanelPowerValue" transform="matrix(1 0 0 1 370.7475 499.7774)" class="st41 st42">500</text>
	<text id="solarPanelPowerUnit" transform="matrix(1 0 0 1 398.2144 499.7775)" class="st43 st42">W</text>
	<circle id="solarPanelLedStatus" class="st44" cx="411.3" cy="423.5" r="8.1"/>
	<text id="solarPanelRadiationValue" transform="matrix(1 0 0 1 393.0716 478.9824)" class="st43 st42">12</text>
	<text id="solarPanelRadiationUnit" transform="matrix(1 0 0 1 411.31 478.9824)" class="st43 st42">W/m2</text>
</g>
<g id="batteryDisplay">
	<path id="batteryBackground" class="st45" d="M606.2,383.2H713c3.4,0,6.1,2.7,6.1,6.1v73.9c0,3.4-2.7,6.1-6.1,6.1H606.2
		c-3.4,0-6.1-2.7-6.1-6.1v-73.9C600.1,385.9,602.9,383.2,606.2,383.2z"/>
	<text id="BatteryTitle" transform="matrix(1 0 0 1 614.26 412.42)" class="st39 st46">Battery</text>
	<text id="batterySocUnit" transform="matrix(1 0 0 1 661.33 436.4194)" class="st43 st47">%</text>
	<text id="batterySocValue" transform="matrix(1 0 0 1 645.7143 436.4197)" class="st43 st48">43</text>
	<text id="batterySocTitle" transform="matrix(1 0 0 1 614.26 436.42)" class="st41 st48">SoC:</text>
	<text id="batteryPowerTitle" transform="matrix(1 0 0 1 614.2603 452.5749)" class="st41 st48">Power:</text>
	<text id="batteryPowerValue" transform="matrix(1 0 0 1 657.3131 452.265)" class="st41 st48">1000</text>
	<text id="batteryPowerUnit" transform="matrix(1 0 0 1 691.8303 452.2649)" class="st43 st49">W</text>
	<g id="batteryLedStatus" class="st50">
		<circle class="st51" cx="684.3" cy="407.9" r="7.5"/>
	</g>
</g>
<g id="costumerDisplay">
	<path id="background" class="st45" d="M825.1,396.4h109.4c4,0,7.3,3.3,7.3,7.3v75.4c0,4-3.3,7.3-7.3,7.3H825.1
		c-4,0-7.3-3.3-7.3-7.3v-75.4C817.8,399.6,821.1,396.4,825.1,396.4z"/>
	<text id="CostumerTitle" transform="matrix(1 0 0 1 828.26 420.42)" class="st39 st46">Costumer</text>
	<circle id="costumerLedStatus" class="st52" cx="916.3" cy="415.9" r="7.5"/>
	<text id="costumerPowerTitle" transform="matrix(1 0 0 1 828.26 444.42)" class="st41 st48">Power:</text>
	<text id="costumerPowerValue" transform="matrix(1 0 0 1 872.5245 444.4199)" class="st41 st48">1000</text>
	<text id="costumerPowerunit" transform="matrix(1 0 0 1 906.83 444.4199)" class="st43 st48">W</text>
	<text id="costumerEnergyTitle" transform="matrix(1 0 0 1 828.26 465.42)" class="st41 st48">Energy:</text>
	<text id="costumerEnergyValue" transform="matrix(1 0 0 1 871.6204 466.5757)" class="st41 st48"> 500</text>
	<text id="costumerEnergyUnit" transform="matrix(1 0 0 1 899.9254 465.4198)" class="st43 st53">W/H</text>
</g>
</svg>
