<?xml version="1.0" encoding="UTF-8" standalone="no"?>
<!-- Created with Inkscape (http://www.inkscape.org/) -->

<svg
   xmlns:dc="http://purl.org/dc/elements/1.1/"
   xmlns:cc="http://creativecommons.org/ns#"
   xmlns:rdf="http://www.w3.org/1999/02/22-rdf-syntax-ns#"
   xmlns:svg="http://www.w3.org/2000/svg"
   xmlns="http://www.w3.org/2000/svg"
   xmlns:sodipodi="http://sodipodi.sourceforge.net/DTD/sodipodi-0.dtd"
   xmlns:inkscape="http://www.inkscape.org/namespaces/inkscape"
   width="210mm"
   height="297mm"
   viewBox="0 0 210 297"
   version="1.1"
   id="svg186"
   inkscape:version="0.92.3 (2405546, 2018-03-11)"
   sodipodi:docname="solar-panel3.svg">
  <defs
     id="defs180" />
  <sodipodi:namedview
     id="base"
     pagecolor="#ffffff"
     bordercolor="#666666"
     borderopacity="1.0"
     inkscape:pageopacity="0.0"
     inkscape:pageshadow="2"
     inkscape:zoom="0.35"
     inkscape:cx="400"
     inkscape:cy="560"
     inkscape:document-units="mm"
     inkscape:current-layer="layer1"
     showgrid="false"
     inkscape:window-width="1366"
     inkscape:window-height="693"
     inkscape:window-x="0"
     inkscape:window-y="25"
     inkscape:window-maximized="1" />
  <metadata
     id="metadata183">
    <rdf:RDF>
      <cc:Work
         rdf:about="">
        <dc:format>image/svg+xml</dc:format>
        <dc:type
           rdf:resource="http://purl.org/dc/dcmitype/StillImage" />
        <dc:title></dc:title>
      </cc:Work>
    </rdf:RDF>
  </metadata>
  <g
     inkscape:label="Capa 1"
     inkscape:groupmode="layer"
     id="layer1">
    <g
       transform="matrix(0.49049268,0,0,0.52887293,-19.732072,2.1033711)"
       id="g6"
       style="fill:#ffffff">
      <g
         id="g4"
         style="fill:#ffffff">
        <path
           inkscape:connector-curvature="0"
           d="m 255.998,40.32 c -20.833,0 -37.781,16.948 -37.781,37.781 0,20.833 16.948,37.78 37.781,37.78 20.833,0 37.781,-16.949 37.781,-37.78 C 293.78,57.268 276.831,40.32 255.998,40.32 Z m 0,60.482 c -12.518,0 -22.703,-10.184 -22.703,-22.702 0,-12.518 10.184,-22.703 22.703,-22.703 12.519,0 22.703,10.184 22.703,22.703 0,12.519 -10.184,22.702 -22.703,22.702 z"
           id="path2"
           style="fill:#ffffff" />
      </g>
    </g>
    <g
       transform="matrix(0.49049268,0,0,0.52887293,-19.732072,2.1033711)"
       id="g12"
       style="fill:#ffffff">
      <g
         id="g10"
         style="fill:#ffffff">
        <path
           inkscape:connector-curvature="0"
           d="m 255.998,0 c -4.165,0 -7.539,3.376 -7.539,7.539 v 10.08 c 0,4.164 3.375,7.539 7.539,7.539 4.164,0 7.539,-3.376 7.539,-7.539 V 7.539 C 263.538,3.376 260.163,0 255.998,0 Z"
           id="path8"
           style="fill:#ffffff" />
      </g>
    </g>
    <g
       transform="matrix(0.49049268,0,0,0.52887293,-19.732072,2.1033711)"
       id="g18"
       style="fill:#ffffff">
      <g
         id="g16"
         style="fill:#ffffff">
        <path
           inkscape:connector-curvature="0"
           d="m 218.563,30.002 -7.128,-7.127 c -2.943,-2.944 -7.717,-2.943 -10.662,0 -2.944,2.944 -2.944,7.718 0.001,10.663 l 7.127,7.128 c 1.472,1.472 3.402,2.208 5.331,2.208 1.929,0 3.859,-0.736 5.332,-2.209 2.944,-2.945 2.944,-7.719 -0.001,-10.663 z"
           id="path14"
           style="fill:#ffffff" />
      </g>
    </g>
    <g
       transform="matrix(0.49049268,0,0,0.52887293,-19.732072,2.1033711)"
       id="g24"
       style="fill:#ffffff">
      <g
         id="g22"
         style="fill:#ffffff">
        <path
           inkscape:connector-curvature="0"
           d="m 195.518,70.56 h -10.08 c -4.165,0 -7.539,3.376 -7.539,7.539 0,4.164 3.375,7.539 7.539,7.539 h 10.08 c 4.165,0 7.539,-3.376 7.539,-7.539 0,-4.163 -3.375,-7.539 -7.539,-7.539 z"
           id="path20"
           style="fill:#ffffff" />
      </g>
    </g>
    <g
       transform="matrix(0.49049268,0,0,0.52887293,-19.732072,2.1033711)"
       id="g30"
       style="fill:#ffffff">
      <g
         id="g28"
         style="fill:#ffffff">
        <path
           inkscape:connector-curvature="0"
           d="m 218.563,115.536 c -2.945,-2.944 -7.718,-2.944 -10.664,0 l -7.127,7.127 c -2.944,2.944 -2.944,7.718 0,10.662 1.473,1.472 3.403,2.209 5.332,2.209 1.929,0 3.859,-0.736 5.332,-2.209 l 7.127,-7.127 c 2.944,-2.944 2.944,-7.718 0,-10.662 z"
           id="path26"
           style="fill:#ffffff" />
      </g>
    </g>
    <g
       transform="matrix(0.49049268,0,0,0.52887293,-19.732072,2.1033711)"
       id="g36"
       style="fill:#ffffff">
      <g
         id="g34"
         style="fill:#ffffff">
        <path
           inkscape:connector-curvature="0"
           d="m 255.998,131.042 c -4.165,0 -7.539,3.376 -7.539,7.539 v 10.08 c 0,4.164 3.375,7.539 7.539,7.539 4.164,0 7.539,-3.376 7.539,-7.539 v -10.08 c 0.001,-4.163 -3.374,-7.539 -7.539,-7.539 z"
           id="path32"
           style="fill:#ffffff" />
      </g>
    </g>
    <g
       transform="matrix(0.49049268,0,0,0.52887293,-19.732072,2.1033711)"
       id="g42"
       style="fill:#ffffff">
      <g
         id="g40"
         style="fill:#ffffff">
        <path
           inkscape:connector-curvature="0"
           d="m 311.225,122.665 -7.127,-7.127 c -2.944,-2.944 -7.718,-2.945 -10.663,-10e-4 -2.945,2.944 -2.945,7.718 -10e-4,10.663 l 7.127,7.127 c 1.473,1.472 3.402,2.208 5.332,2.208 1.929,0 3.859,-0.736 5.331,-2.208 2.945,-2.944 2.945,-7.718 0.001,-10.662 z"
           id="path38"
           style="fill:#ffffff" />
      </g>
    </g>
    <g
       transform="matrix(0.49049268,0,0,0.52887293,-19.732072,2.1033711)"
       id="g48"
       style="fill:#ffffff">
      <g
         id="g46"
         style="fill:#ffffff">
        <path
           inkscape:connector-curvature="0"
           d="m 326.56,70.562 h -10.08 c -4.165,0 -7.539,3.376 -7.539,7.539 0,4.163 3.375,7.539 7.539,7.539 h 10.08 c 4.165,0 7.539,-3.376 7.539,-7.539 0,-4.163 -3.374,-7.539 -7.539,-7.539 z"
           id="path44"
           style="fill:#ffffff" />
      </g>
    </g>
    <g
       transform="matrix(0.49049268,0,0,0.52887293,-19.732072,2.1033711)"
       id="g54"
       style="fill:#ffffff">
      <g
         id="g52"
         style="fill:#ffffff">
        <path
           inkscape:connector-curvature="0"
           d="m 311.224,22.874 c -2.943,-2.944 -7.717,-2.943 -10.662,0 l -7.127,7.127 c -2.944,2.944 -2.944,7.718 10e-4,10.663 1.471,1.473 3.401,2.209 5.33,2.209 1.929,0 3.859,-0.736 5.332,-2.209 l 7.127,-7.127 c 2.944,-2.944 2.944,-7.718 -0.001,-10.663 z"
           id="path50"
           style="fill:#ffffff" />
      </g>
    </g>
    <g
       transform="matrix(0.49049268,0,0,0.52887293,-19.732072,2.1033711)"
       id="g60"
       style="fill:#ffffff">
      <g
         id="g58"
         style="fill:#ffffff">
        <path
           inkscape:connector-curvature="0"
           d="m 465.123,386.181 c -0.006,-0.132 -0.007,-0.263 -0.02,-0.395 -0.026,-0.265 -0.066,-0.526 -0.12,-0.782 -10e-4,-0.006 -10e-4,-0.011 -0.003,-0.017 l -13.427,-63.778 c -0.005,-0.023 -0.01,-0.045 -0.014,-0.068 l -13.426,-63.774 c -0.005,-0.023 -0.01,-0.045 -0.014,-0.068 L 424.66,193.462 c -0.734,-3.489 -3.812,-5.986 -7.378,-5.986 H 94.713 c -3.566,0 -6.643,2.497 -7.378,5.986 l -13.436,63.83 c -0.006,0.027 -0.012,0.053 -0.017,0.08 l -13.425,63.775 c -0.004,0.018 -0.008,0.037 -0.011,0.055 L 47.02,384.981 c -0.056,0.269 -0.099,0.544 -0.126,0.822 -0.006,0.064 -0.005,0.13 -0.01,0.194 -0.013,0.179 -0.027,0.358 -0.027,0.541 v 30.243 c 0,4.164 3.375,7.539 7.539,7.539 h 178.94 v 42.356 h -57.982 c -4.165,0 -7.539,3.376 -7.539,7.539 v 22.704 H 94.714 c -4.165,0 -7.539,3.376 -7.539,7.539 0,4.163 3.375,7.539 7.539,7.539 h 80.641 161.285 80.63 c 4.165,0 7.539,-3.376 7.539,-7.539 0,-4.163 -3.375,-7.539 -7.539,-7.539 h -73.09 v -22.704 c 0,-4.164 -3.375,-7.539 -7.539,-7.539 H 278.659 V 424.32 H 457.6 c 4.165,0 7.539,-3.376 7.539,-7.539 v -30.108 c 10e-4,-0.01 10e-4,-0.022 10e-4,-0.034 v -0.098 c 0.001,-0.123 -0.011,-0.24 -0.017,-0.36 z M 448.311,379 H 330.23 l -3.423,-48.763 h 111.238 z m -23.706,-112.604 10.267,48.763 H 325.749 l -3.423,-48.763 z m -13.44,-63.841 10.267,48.763 H 321.268 l -3.423,-48.763 z m -201.9,0 h 93.465 l 3.423,48.763 h -100.31 z m -4.479,63.841 h 102.425 l 3.423,48.763 h -109.27 z m -4.479,63.842 H 311.692 L 315.114,379 H 196.885 Z M 100.831,202.555 h 93.319 l -3.422,48.763 H 90.565 Z M 87.392,266.396 H 189.67 l -3.422,48.763 H 77.126 Z m 241.71,215.361 v 15.164 H 182.895 v -15.164 h 57.982 30.244 z m -80.686,-15.079 v -42.356 h 15.165 v 42.356 z m 22.792,-57.435 c -0.029,0 -0.058,-0.004 -0.087,-0.004 h -30.244 c -0.029,0 -0.058,0.004 -0.087,0.004 H 61.935 V 394.079 H 97.85 c 4.165,0 7.539,-3.376 7.539,-7.539 0,-4.164 -3.375,-7.539 -7.539,-7.539 H 63.687 L 73.952,330.238 H 185.19 L 181.768,379 h -51.314 -0.001 c -4.165,0 -7.539,3.376 -7.539,7.539 0,4.164 3.375,7.539 7.539,7.539 h 0.001 58.337 c 0.005,0 0.009,0 0.014,0 0.003,0 0.007,0 0.01,0 h 134.367 c 0.003,0 0.007,0 0.01,0 0.005,0 0.009,0 0.014,0 H 450.06 v 15.164 H 271.208 Z"
           id="path56"
           style="fill:#ffffff" />
      </g>
    </g>
  </g>
</svg>
